<svg width="19" height="19" viewBox="0 0 19 19" fill="none" xmlns="http://www.w3.org/2000/svg">
<path d="M18.4578 13.4258L14.3016 11.6446C14.124 11.5689 13.9267 11.553 13.7393 11.5992C13.5519 11.6453 13.3846 11.7511 13.2625 11.9006L11.4219 14.1495C8.53321 12.7875 6.20847 10.4627 4.84648 7.57406L7.09531 5.73343C7.24511 5.61159 7.35114 5.44427 7.39734 5.25678C7.44355 5.0693 7.42741 4.87186 7.35137 4.69437L5.57012 0.538121C5.48666 0.346788 5.33906 0.190571 5.15277 0.0964072C4.96647 0.00224332 4.75316 -0.0239654 4.54961 0.0223002L0.690234 0.912925C0.493989 0.958243 0.318898 1.06874 0.193538 1.22638C0.0681793 1.38402 -4.5207e-05 1.5795 2.24742e-08 1.78091C2.24742e-08 11.2995 7.71504 18.9997 17.2188 18.9997C17.4202 18.9998 17.6158 18.9316 17.7735 18.8062C17.9312 18.6809 18.0418 18.5057 18.0871 18.3094L18.9777 14.4501C19.0237 14.2455 18.9969 14.0313 18.902 13.8444C18.8072 13.6575 18.6501 13.5095 18.4578 13.4258V13.4258Z" fill="#8764C2"/>
</svg>
