<?xml version="1.0" encoding="UTF-8" standalone="no"?>
<svg
   xmlns:dc="http://purl.org/dc/elements/1.1/"
   xmlns:cc="http://creativecommons.org/ns#"
   xmlns:rdf="http://www.w3.org/1999/02/22-rdf-syntax-ns#"
   xmlns:svg="http://www.w3.org/2000/svg"
   xmlns="http://www.w3.org/2000/svg"
   xmlns:sodipodi="http://sodipodi.sourceforge.net/DTD/sodipodi-0.dtd"
   xmlns:inkscape="http://www.inkscape.org/namespaces/inkscape"
   width="26"
   height="26"
   viewBox="0 0 26 26"
   fill="none"
   version="1.1"
   id="svg6"
   sodipodi:docname="Chats.svg"
   inkscape:version="1.0.2-2 (e86c870879, 2021-01-15)">
  <metadata
     id="metadata12">
    <rdf:RDF>
      <cc:Work
         rdf:about="">
        <dc:format>image/svg+xml</dc:format>
        <dc:type
           rdf:resource="http://purl.org/dc/dcmitype/StillImage" />
        <dc:title></dc:title>
      </cc:Work>
    </rdf:RDF>
  </metadata>
  <defs
     id="defs10" />
  <sodipodi:namedview
     pagecolor="#ffffff"
     bordercolor="#666666"
     borderopacity="1"
     objecttolerance="10"
     gridtolerance="10"
     guidetolerance="10"
     inkscape:pageopacity="0"
     inkscape:pageshadow="2"
     inkscape:window-width="1920"
     inkscape:window-height="1051"
     id="namedview8"
     showgrid="false"
     inkscape:zoom="33.846154"
     inkscape:cx="13"
     inkscape:cy="9.1689394"
     inkscape:window-x="-9"
     inkscape:window-y="-9"
     inkscape:window-maximized="1"
     inkscape:current-layer="svg6" />
  <path
     d="M 22.590162,0.2131147 H 3.4098357 c -1.7981555,0 -3.196721,1.4485196 -3.196721,3.196721 V 17.79508 c 0,1.798156 1.3985655,3.196721 3.196721,3.196721 h 4.7950815 v 4.195696 c 0,0.39959 0.2497491,0.599386 0.5993851,0.599386 0.099898,0 0.1997951,0 0.3496361,-0.09995 l 6.2436006,-4.695131 h 7.192623 c 1.74818,0 3.196721,-1.398565 3.196721,-3.196721 V 3.4098357 c 0,-1.7482014 -1.448541,-3.196721 -3.196721,-3.196721 z m 0.79918,17.5819653 c 0,0.449566 -0.39959,0.79918 -0.79918,0.79918 h -7.991803 l -0.64936,0.499541 -3.346541,2.497385 V 18.59426 H 3.4098357 c -0.4495442,0 -0.7991802,-0.349614 -0.7991802,-0.79918 V 3.4098357 c 0,-0.3995901 0.349636,-0.7991802 0.7991802,-0.7991802 H 22.590162 c 0.39959,0 0.79918,0.3995901 0.79918,0.7991802 z"
     fill="#8764c2"
     id="path2"
     style="stroke-width:1.06557" />
  <path
     d="M 8.2049172,20.991801 H 8.4180319 V 20.778686 H 8.2049172 Z m 0.9490212,4.695131 0.1184066,0.177631 0.0097,-0.0072 z m 6.2436006,-4.695131 v -0.213115 h -0.07118 l -0.0569,0.04284 z M 14.598359,18.59426 V 18.381146 H 14.5259 l -0.05743,0.04422 z m -0.64936,0.499541 0.127549,0.170812 0.0025,-0.0019 z m -3.346541,2.497385 h -0.213115 v 0.424951 l 0.340558,-0.254139 z m 0,-2.996926 h 0.213115 V 18.381146 H 10.602458 Z M 22.590162,0 H 3.4098357 V 0.4262295 H 22.590162 Z M 3.4098357,0 C 1.4918138,0 0,1.5461048 0,3.4098357 h 0.4262295 c 0,-1.6326826 1.305317,-2.9836062 2.9836062,-2.9836062 z M 0,3.4098357 V 17.79508 H 0.4262295 V 3.4098357 Z M 0,17.79508 c 0,1.915902 1.4939769,3.409836 3.4098357,3.409836 v -0.42623 c -1.6804523,0 -2.9836062,-1.303196 -2.9836062,-2.983606 z m 3.4098357,3.409836 h 4.7950815 v -0.42623 H 3.4098357 Z m 4.5819667,-0.213115 v 4.195696 h 0.4262295 v -4.195696 z m 0,4.195696 c 0,0.245615 0.078107,0.456492 0.2356303,0.604713 0.15535,0.146197 0.3626893,0.207787 0.5768696,0.207787 v -0.426229 c -0.1354557,0 -0.2278089,-0.03836 -0.2847425,-0.09196 -0.05476,-0.05147 -0.1015279,-0.140336 -0.1015279,-0.294312 z m 0.8124999,0.8125 c 0.048452,0 0.1203672,6.4e-4 0.2023205,-0.01758 0.084713,-0.01875 0.1712803,-0.0553 0.2655302,-0.118065 L 9.0357343,25.50962 c -0.055591,0.03708 -0.093909,0.05062 -0.1215713,0.05669 -0.030433,0.0068 -0.058415,0.0075 -0.1098607,0.0075 z m 0.4777287,-0.14268 6.24359,-4.695237 -0.256164,-0.340558 -6.2436006,4.695131 z m 6.115508,-4.652401 h 7.192623 v -0.42623 h -7.192623 z m 7.192623,0 c 1.863688,0 3.409835,-1.491803 3.409835,-3.409836 h -0.426229 c 0,1.678279 -1.350934,2.983606 -2.983606,2.983606 z M 25.999997,17.79508 V 3.4098357 H 25.573768 V 17.79508 Z m 0,-14.3852443 C 25.999997,1.543931 24.456088,0 22.590162,0 v 0.4262295 c 1.63054,0 2.983606,1.3530974 2.983606,2.9836062 z M 23.176227,17.79508 c 0,0.323402 -0.29559,0.586066 -0.586065,0.586066 v 0.426229 c 0.508704,0 1.012295,-0.436565 1.012295,-1.012295 z m -0.586065,0.586066 h -7.991803 v 0.426229 h 7.991803 z m -8.121696,0.04422 -0.649361,0.499434 0.259894,0.337894 0.649254,-0.499541 z m -0.64691,0.497623 -3.346541,2.497385 0.254886,0.341623 3.34654,-2.497492 z m -3.005983,2.668196 V 18.59426 h -0.42623 v 2.996926 z m -0.213115,-3.21004 H 3.4098357 v 0.426229 h 7.1926223 z m -7.1926223,0 c -0.3318409,0 -0.5860655,-0.254246 -0.5860655,-0.586066 H 2.3975407 c 0,0.567205 0.4450582,1.012295 1.012295,1.012295 z M 2.8237702,17.79508 V 3.4098357 H 2.3975407 V 17.79508 Z m 0,-14.3852443 c 0,-0.2905287 0.2626852,-0.5860655 0.5860655,-0.5860655 V 2.3975407 c -0.5756975,0 -1.012295,0.5036434 -1.012295,1.012295 z M 3.4098357,2.8237702 H 22.590162 V 2.3975407 H 3.4098357 Z m 19.1803263,0 c 0.130532,0 0.278754,0.067387 0.398737,0.1873278 0.119984,0.1199304 0.187328,0.2682582 0.187328,0.3987377 h 0.42623 c 0,-0.2691106 -0.132451,-0.5203729 -0.312214,-0.7001352 C 23.110588,2.5299489 22.859219,2.3975407 22.590162,2.3975407 Z m 0.586065,0.5860655 V 17.79508 h 0.42623 V 3.4098357 Z"
     fill="#8764c2"
     id="path4"
     style="stroke-width:1.06557" />
</svg>
