<?xml version="1.0" encoding="UTF-8" standalone="no"?>
<svg
   xmlns:dc="http://purl.org/dc/elements/1.1/"
   xmlns:cc="http://creativecommons.org/ns#"
   xmlns:rdf="http://www.w3.org/1999/02/22-rdf-syntax-ns#"
   xmlns:svg="http://www.w3.org/2000/svg"
   xmlns="http://www.w3.org/2000/svg"
   xmlns:sodipodi="http://sodipodi.sourceforge.net/DTD/sodipodi-0.dtd"
   xmlns:inkscape="http://www.inkscape.org/namespaces/inkscape"
   width="19"
   height="19"
   viewBox="0 0 19 19"
   fill="none"
   version="1.1"
   id="svg6"
   sodipodi:docname="Chat2.svg"
   inkscape:version="1.0.2-2 (e86c870879, 2021-01-15)">
  <metadata
     id="metadata12">
    <rdf:RDF>
      <cc:Work
         rdf:about="">
        <dc:format>image/svg+xml</dc:format>
        <dc:type
           rdf:resource="http://purl.org/dc/dcmitype/StillImage" />
        <dc:title></dc:title>
      </cc:Work>
    </rdf:RDF>
  </metadata>
  <defs
     id="defs10" />
  <sodipodi:namedview
     pagecolor="#ffffff"
     bordercolor="#666666"
     borderopacity="1"
     objecttolerance="10"
     gridtolerance="10"
     guidetolerance="10"
     inkscape:pageopacity="0"
     inkscape:pageshadow="2"
     inkscape:window-width="1920"
     inkscape:window-height="1051"
     id="namedview8"
     showgrid="false"
     inkscape:zoom="35.2"
     inkscape:cx="10"
     inkscape:cy="11.212121"
     inkscape:window-x="-9"
     inkscape:window-y="-9"
     inkscape:window-maximized="1"
     inkscape:current-layer="svg6" />
  <path
     d="m 10.2714,5.5788 h -7.2 C 1.2252,5.5788 0.5,6.304 0.5,8.1502 v 4.2 c 0,1.6308 0.5666,2.3868 1.9714,2.5408 v 2.6876 c 0,0.0516 0.0306,0.0978 0.0778,0.118 0.0162,0.007 0.0334,0.0106 0.0506,0.0106 0.0324,0 0.0642,-0.0122 0.0886,-0.0352 l 2.897,-2.7504 h 4.6858 c 1.846,0 2.5714,-0.7254 2.5714,-2.5714 v -4.2 C 12.843,6.304 12.1176,5.5788 10.2714,5.5788 Z"
     fill="#8764c2"
     id="path2" />
  <path
     d="M 15.9286,1.293 H 8.81444 c -1.8462,0 -2.5714,0.7252 -2.5714,2.5714 v 0.6858 h 4.02856 c 1.2356,0 2.0952,0.2842 2.7052,0.8946 0.6104,0.6104 0.8948,1.47 0.8948,2.7054 v 2.486 h 0.7206 l 1.9394,1.836 c 0.0244,0.0234 0.056,0.0354 0.0884,0.0354 0.0172,0 0.0344,-0.0034 0.0508,-0.0104 0.047,-0.0206 0.0778,-0.0668 0.0778,-0.1184 V 10.5752 C 17.9928,10.3672 18.5,9.6078 18.5,8.0644 v -4.2 C 18.5,2.0182 17.7748,1.293 15.9286,1.293 Z"
     fill="#8764c2"
     id="path4" />
</svg>
