<?xml version="1.0" encoding="UTF-8" standalone="no"?>
<svg
   xmlns:dc="http://purl.org/dc/elements/1.1/"
   xmlns:cc="http://creativecommons.org/ns#"
   xmlns:rdf="http://www.w3.org/1999/02/22-rdf-syntax-ns#"
   xmlns:svg="http://www.w3.org/2000/svg"
   xmlns="http://www.w3.org/2000/svg"
   xmlns:sodipodi="http://sodipodi.sourceforge.net/DTD/sodipodi-0.dtd"
   xmlns:inkscape="http://www.inkscape.org/namespaces/inkscape"
   width="26"
   height="26"
   viewBox="0 0 26 26"
   fill="none"
   version="1.1"
   id="svg6"
   sodipodi:docname="Favourite.svg"
   inkscape:version="1.0.2-2 (e86c870879, 2021-01-15)">
  <metadata
     id="metadata12">
    <rdf:RDF>
      <cc:Work
         rdf:about="">
        <dc:format>image/svg+xml</dc:format>
        <dc:type
           rdf:resource="http://purl.org/dc/dcmitype/StillImage" />
        <dc:title></dc:title>
      </cc:Work>
    </rdf:RDF>
  </metadata>
  <defs
     id="defs10" />
  <sodipodi:namedview
     pagecolor="#ffffff"
     bordercolor="#666666"
     borderopacity="1"
     objecttolerance="10"
     gridtolerance="10"
     guidetolerance="10"
     inkscape:pageopacity="0"
     inkscape:pageshadow="2"
     inkscape:window-width="1920"
     inkscape:window-height="1051"
     id="namedview8"
     showgrid="false"
     showguides="false"
     inkscape:zoom="38.26087"
     inkscape:cx="13.5"
     inkscape:cy="10.001515"
     inkscape:window-x="-9"
     inkscape:window-y="-9"
     inkscape:window-maximized="1"
     inkscape:current-layer="svg6" />
  <path
     d="M 23.12057,3.4180407 C 20.220882,0.96836158 15.771472,1.3183156 13.021882,4.16794 10.222225,1.3183156 5.7728353,0.96836158 2.8732187,3.4180407 -0.87628669,6.5676238 -0.32635871,11.716948 2.3732858,14.466538 L 11.1221,23.415426 c 0.499953,0.499953 1.149903,0.799843 1.899782,0.799843 0.699914,0 1.349864,-0.29989 1.849714,-0.799843 l 8.798892,-8.948888 C 26.320149,11.716948 26.870067,6.5676238 23.12057,3.4180407 Z m -1.199867,9.3487783 -8.748825,8.948786 c -0.100032,0.100032 -0.199961,0.100032 -0.349957,0 L 4.0730657,12.766819 C 2.2232998,10.917054 1.873353,7.4175138 4.4230125,5.2677964 6.3727588,3.6180118 9.3723662,3.8679782 11.272096,5.7677292 l 1.749786,1.7997603 1.749785,-1.7997603 C 16.621382,3.8679782 19.621,3.6180118 21.570746,5.217801 c 2.549629,2.1997128 2.199672,5.699253 0.349957,7.549018 z"
     fill="#8764c2"
     id="path2"
     style="stroke-width:1.02387" />
  <path
     d="m 23.12057,3.4180407 -0.132181,0.1564261 4.1e-4,3.686e-4 z M 13.021882,4.16794 12.875776,4.3114449 13.023213,4.4614719 13.169216,4.3101242 Z M 2.8732187,3.4180407 l 0.13171,0.1567947 4.402e-4,-3.686e-4 z m -0.4999329,11.0484973 0.146423,-0.143137 -3.072e-4,-3.07e-4 z m 8.7488142,8.948888 -0.146413,0.143136 0.0016,0.0016 z m 3.749496,0 0.144877,0.144774 0.0012,-0.0012 z m 8.798892,-8.948888 0.146004,0.143648 0.0014,-0.0015 z m -1.749785,-1.699719 -0.144775,-0.144774 -0.0016,0.0016 z m -8.748825,8.948786 0.144775,0.144877 0.0016,-0.0017 z m -0.349957,0 -0.146413,0.143136 0.01495,0.01536 0.01782,0.01188 z m -8.7488553,-8.948786 0.1464332,-0.143136 -0.00164,-0.0016 z m 0.3499468,-7.4990226 0.1319967,0.1565489 2.765e-4,-2.252e-4 z m 6.8490835,0.4999328 0.146823,-0.1427575 -0.002,-0.00204 z m 1.749786,1.7997603 -0.146822,0.1427473 0.146822,0.1510099 0.146822,-0.1510099 z m 1.749785,-1.7997603 -0.14672,-0.1428496 -1.02e-4,1.023e-4 z m 6.799079,-0.5499282 0.133819,-0.155095 -0.0039,-0.0032 z M 23.252751,3.2616146 C 20.263782,0.73648787 15.692532,1.1052188 12.874548,4.0257559 l 0.294668,0.2843683 C 15.850412,1.5314126 20.178085,1.2002353 22.988389,3.5744668 Z M 13.167987,4.0244351 C 10.300858,1.1061559 5.7305907,0.73598106 2.7410684,3.2616146 L 3.0053689,3.5744668 C 5.81508,1.2007421 10.143592,1.5304748 12.875776,4.3114449 Z M 2.7415087,3.261246 C -1.1147134,6.5004685 -0.54138164,11.790257 2.22717,14.610084 l 0.2922316,-0.28699 C -0.1113368,11.64364 -0.63785943,6.6347791 3.0049287,3.5748354 Z M 2.2268629,14.609776 10.975687,23.558562 11.268513,23.27229 2.5197088,14.323401 Z M 10.977326,23.5602 c 0.535276,0.535277 1.236112,0.859842 2.044556,0.859842 v -0.409546 c -0.691416,0 -1.290377,-0.275215 -1.754905,-0.739845 z m 2.044556,0.859842 c 0.760527,0 1.460851,-0.326203 1.994591,-0.859842 l -0.289651,-0.289549 c -0.466166,0.466166 -1.065639,0.739845 -1.70494,0.739845 z m 1.99582,-0.86107 8.79879,-8.948786 -0.292007,-0.287194 -8.798892,8.948888 z M 23.817925,14.60865 C 26.534956,11.789131 27.10832,6.5003047 23.252239,3.261246 l -0.26344,0.3135894 c 3.643014,3.0601076 3.116543,8.0699306 0.534253,10.7496926 z m -2.043635,-1.984967 -8.748825,8.948786 0.292826,0.286272 8.748825,-8.948785 z m -8.747186,8.947148 c -0.01331,0.01331 -0.02007,0.01669 -0.02038,0.01679 0,0 3.07e-4,-1.02e-4 9.21e-4,-4.1e-4 6.14e-4,-2.04e-4 0.0015,-4.09e-4 0.0026,-7.16e-4 0.0022,-5.12e-4 0.0041,-6.15e-4 0.0054,-6.15e-4 0.0027,0 -0.0016,6.15e-4 -0.01536,-0.0048 -0.01433,-0.0055 -0.03543,-0.01628 -0.06481,-0.03584 l -0.227196,0.340742 c 0.08774,0.05856 0.19136,0.109451 0.307364,0.109451 0.126652,0 0.225762,-0.05979 0.301017,-0.135047 z m -0.05877,0.0016 -8.7488454,-8.948786 -0.2928459,0.286273 8.7488653,8.948785 z M 4.2178607,12.622045 C 2.440564,10.844718 2.1098863,7.4859284 4.5550092,5.4243453 L 4.2910159,5.1112372 C 1.6368196,7.3490991 2.0060459,10.98938 3.9282605,12.911594 Z M 4.5552857,5.4241201 C 6.4141639,3.8512176 9.2936719,4.0788842 11.127322,5.9125242 l 0.289549,-0.28959 C 9.4510502,3.6570723 6.3313537,3.3848061 4.2907394,5.1114726 Z M 11.125274,5.9104765 12.87506,7.7102368 13.168704,7.4247525 11.418919,5.6249819 Z M 13.168704,7.7102368 14.91849,5.9104765 14.624845,5.6249819 12.87506,7.4247525 Z m 1.749683,-1.7996579 c 1.782242,-1.8304456 4.66217,-2.0608459 6.52243,-0.5344678 L 21.700674,5.0595013 C 19.661442,3.3863009 16.542135,3.6558334 14.624947,5.6248796 Z m 6.518642,-0.537734 c 2.448573,2.1124897 2.115101,5.4729581 0.338899,7.2492001 l 0.289549,0.289549 c 1.923331,-1.923299 2.289772,-5.5619113 -0.360912,-7.8488369 z"
     fill="#8764c2"
     id="path4"
     style="stroke-width:1.02387" />
</svg>
