<svg width="26" height="22" viewBox="0 0 26 22" fill="none" xmlns="http://www.w3.org/2000/svg">
<path d="M13 21.7143C13.2143 21.7143 13.4286 21.6339 13.5893 21.4732L21.933 13.4375C22.0536 13.317 25 10.625 25 7.41071C25 3.48661 22.6027 1.14286 18.5982 1.14286C16.2545 1.14286 14.058 2.99107 13 4.03571C11.942 2.99107 9.74554 1.14286 7.40179 1.14286C3.39732 1.14286 1 3.48661 1 7.41071C1 10.625 3.94643 13.317 4.05357 13.4107L12.4107 21.4732C12.5714 21.6339 12.7857 21.7143 13 21.7143Z" fill="#8764C2"/>
<path d="M13.5893 21.4732L13.4505 21.3291L13.4479 21.3318L13.5893 21.4732ZM21.933 13.4375L22.0718 13.5816L22.0745 13.5789L21.933 13.4375ZM13 4.03571L12.8595 4.17803L13 4.31677L13.1405 4.17803L13 4.03571ZM4.05357 13.4107L4.1926 13.2666L4.18527 13.2602L4.05357 13.4107ZM12.4107 21.4732L12.5522 21.3318L12.5496 21.3293L12.4107 21.4732ZM13 21.9143C13.2638 21.9143 13.53 21.8153 13.7307 21.6146L13.4479 21.3318C13.3271 21.4525 13.1648 21.5143 13 21.5143V21.9143ZM13.728 21.6173L22.0718 13.5816L21.7943 13.2934L13.4505 21.3292L13.728 21.6173ZM22.0745 13.5789C22.1319 13.5215 22.9124 12.8054 23.6764 11.6978C24.4381 10.5934 25.2 9.07645 25.2 7.41071H24.8C24.8 8.95926 24.0887 10.3955 23.3471 11.4707C22.6076 12.5428 21.8547 13.233 21.7916 13.2961L22.0745 13.5789ZM25.2 7.41071C25.2 5.4075 24.5872 3.78438 23.4407 2.66231C22.2947 1.54077 20.6392 0.942856 18.5982 0.942856V1.34286C20.5617 1.34286 22.1071 1.91681 23.1609 2.94818C24.2142 3.97901 24.8 5.48982 24.8 7.41071H25.2ZM18.5982 0.942856C17.3754 0.942856 16.2037 1.42412 15.213 2.02667C14.2207 2.63026 13.3947 3.36493 12.8595 3.89339L13.1405 4.17803C13.6633 3.66186 14.4646 2.95009 15.4209 2.36842C16.3789 1.7857 17.4773 1.34286 18.5982 1.34286V0.942856ZM13.1405 3.89339C12.6053 3.36493 11.7793 2.63026 10.787 2.02667C9.79634 1.42412 8.62462 0.942856 7.40179 0.942856V1.34286C8.5227 1.34286 9.62107 1.7857 10.5791 2.36842C11.5354 2.95009 12.3367 3.66186 12.8595 4.17803L13.1405 3.89339ZM7.40179 0.942856C5.36082 0.942856 3.70528 1.54077 2.55933 2.66231C1.41282 3.78438 0.8 5.4075 0.8 7.41071H1.2C1.2 5.48982 1.78584 3.97901 2.83911 2.94818C3.89293 1.91681 5.43828 1.34286 7.40179 1.34286V0.942856ZM0.8 7.41071C0.8 9.07643 1.56188 10.5934 2.32201 11.6945C3.08383 12.7981 3.85953 13.5067 3.92187 13.5612L4.18527 13.2602C4.14047 13.221 3.38938 12.5367 2.6512 11.4673C1.91133 10.3955 1.2 8.95929 1.2 7.41071H0.8ZM3.91471 13.5546L12.2719 21.6172L12.5496 21.3293L4.19243 13.2668L3.91471 13.5546ZM12.2693 21.6146C12.47 21.8153 12.7362 21.9143 13 21.9143V21.5143C12.8352 21.5143 12.6729 21.4525 12.5521 21.3318L12.2693 21.6146Z" fill="#8764C2"/>
</svg>
