<svg width="165" height="87" viewBox="0 0 165 87" fill="none" xmlns="http://www.w3.org/2000/svg">
<path d="M43.6271 65.1233H3.52258L2.70745 72.3631C2.66087 72.7794 2.8006 73.1958 3.08008 73.5196C3.35955 73.8203 3.77876 74.0053 4.19797 74.0053H42.9517C43.3709 74.0053 43.7901 73.8203 44.0696 73.5196C44.349 73.1958 44.4888 72.7794 44.4422 72.3631L43.6271 65.1233ZM41.4611 45.7171C41.368 44.9769 40.7392 44.3986 39.9706 44.3986H34.0085V47.3593C34.0085 49.0016 32.681 50.32 31.0275 50.32C29.3739 50.32 28.0464 49.0016 28.0464 47.3593V44.3986H19.1032V47.3593C19.1032 49.0016 17.7757 50.32 16.1222 50.32C14.4686 50.32 13.1411 49.0016 13.1411 47.3593V44.3986H7.17903C6.41047 44.3986 5.78166 44.9769 5.6885 45.7171L3.68561 63.643H43.464L41.4611 45.7171ZM32.518 41.438C32.518 36.5344 28.5122 32.556 23.5748 32.556C18.6375 32.556 14.6317 36.5344 14.6317 41.438V47.3593C14.6317 48.1689 15.3071 48.8397 16.1222 48.8397C16.9373 48.8397 17.6127 48.1689 17.6127 47.3593V41.438C17.6127 38.1766 20.291 35.5166 23.5748 35.5166C26.8586 35.5166 29.5369 38.1766 29.5369 41.438V47.3593C29.5369 48.1689 30.2123 48.8397 31.0275 48.8397C31.8426 48.8397 32.518 48.1689 32.518 47.3593V41.438Z" fill="#8764C2"/>
<path d="M13.9728 27.3883H6.59713V9.27864H0V4.19166H20.5699V9.27864H13.9728V27.3883Z" fill="#8764C2"/>
<path d="M34.1566 27.3883H25.3058L21.1263 8.6682H28.2971L30.141 22.5861H30.2639L32.3537 8.6682H39.9342L42.1469 22.5455H42.3109L44.0318 8.6682H51.2436L47.0641 27.3883H38.1723L36.2054 16.0748H36.0825L34.1566 27.3883Z" fill="#8764C2"/>
<path d="M56.8192 6.34854C55.8904 6.34854 55.0846 6.03654 54.4016 5.41254C53.746 4.78854 53.4182 4.04245 53.4182 3.17427C53.4182 2.30609 53.746 1.56 54.4016 0.936003C55.0846 0.312001 55.8904 0 56.8192 0C57.748 0 58.5402 0.312001 59.1958 0.936003C59.8514 1.56 60.1792 2.30609 60.1792 3.17427C60.1792 4.04245 59.8514 4.78854 59.1958 5.41254C58.5402 6.03654 57.748 6.34854 56.8192 6.34854ZM53.2953 8.6682H60.3022V27.3883H53.2953V8.6682Z" fill="#8764C2"/>
<path d="M79.6342 26.8185C77.4215 27.551 74.9492 27.9173 72.2175 27.9173C69.158 27.9173 66.8633 27.1576 65.3336 25.6383C63.8311 24.0919 63.0799 21.6908 63.0799 18.4352C63.0799 16.8345 63.2984 15.2609 63.7355 13.7145C64.1726 12.1409 64.637 11.0828 65.1287 10.5402C65.7023 9.9162 66.8223 9.38716 68.4887 8.95307C70.1824 8.51898 71.9307 8.30194 73.7336 8.30194C75.6185 8.30194 77.5171 8.46472 79.4293 8.79029C79.3746 9.46855 79.279 10.2689 79.1424 11.1913C79.0332 12.0866 78.9103 12.887 78.7737 13.5924C77.08 13.4839 75.4819 13.4296 73.9795 13.4296C72.5044 13.4296 71.5619 13.511 71.1521 13.6738C70.9336 13.7552 70.7287 14.3113 70.5375 15.3423C70.3736 16.3733 70.2917 17.3364 70.2917 18.2317C70.2917 19.4254 70.4556 20.3479 70.7834 20.999C71.1385 21.623 71.6848 22.0571 72.4224 22.3013C73.16 22.5455 74.1571 22.6675 75.4136 22.6675C75.96 22.6675 77.1619 22.6133 79.0195 22.5048L79.6342 26.8185Z" fill="#8764C2"/>
<path d="M93.4158 22.5048C94.0988 22.5048 95.369 22.4369 97.2266 22.3013C97.4725 22.3013 97.9232 22.2741 98.5788 22.2199L99.1935 26.4116C97.09 27.3882 94.3583 27.8766 90.9983 27.8766C87.8568 27.8766 85.4392 27.0898 83.7455 25.5162C82.0792 23.9427 81.246 21.5688 81.246 18.3945C81.246 16.7667 81.4509 15.1931 81.8606 13.6738C82.2977 12.1545 82.7894 11.0964 83.3358 10.4995C83.9094 9.90264 84.9748 9.38716 86.5319 8.95307C88.089 8.51898 89.6324 8.30194 91.1622 8.30194C93.6207 8.30194 95.4646 8.73602 96.6939 9.6042C97.9232 10.4724 98.7291 11.6797 99.1115 13.2261C99.4939 14.7454 99.6852 16.7938 99.6852 19.3712C97.8276 19.4797 96.011 19.534 94.2354 19.534H88.4168C88.4168 20.4021 88.5943 21.0533 88.9495 21.4874C89.3319 21.9215 89.8646 22.2063 90.5475 22.342C91.2305 22.4505 92.1866 22.5048 93.4158 22.5048ZM88.8265 13.1447C88.6626 13.2261 88.5397 13.5788 88.4578 14.2028C88.3758 14.8268 88.3212 15.5322 88.2939 16.319H90.4246C91.7085 16.319 92.6373 16.3054 93.211 16.2783C93.211 14.976 93.0197 14.0536 92.6373 13.511C92.2822 12.9684 91.6539 12.6971 90.7524 12.6971C90.0148 12.6971 89.3729 12.8463 88.8265 13.1447Z" fill="#8764C2"/>
<path d="M77.7541 52.5631C81.0221 52.9449 83.3529 54.0427 84.7466 55.8564C86.1403 57.6224 86.8371 59.7703 86.8371 62.2999C86.8371 63.875 86.5968 65.3785 86.1162 66.8104C85.6357 68.1945 85.059 69.3878 84.3861 70.3901C83.7133 71.3447 83.1366 71.9652 82.656 72.2516C80.7337 73.4925 74.8706 74.113 65.0667 74.113H51.0818V33.3042H68.0223C71.867 33.3042 74.9667 33.519 77.3216 33.9486C79.7245 34.3304 81.6709 35.2373 83.1607 36.6691C84.6505 38.0533 85.3954 40.1773 85.3954 43.041C85.3954 45.523 84.7706 47.5276 83.5211 49.055C82.3196 50.5823 80.3973 51.6324 77.7541 52.2051V52.5631ZM71.9871 41.9671C71.5065 41.4898 70.9298 41.2035 70.257 41.108C69.6323 40.9648 68.623 40.8932 67.2294 40.8932C65.8357 40.8932 64.7784 40.9171 64.0575 40.9648V49.6993H64.7784C65.0187 49.6993 66.0279 49.6993 67.8061 49.6993C69.5842 49.6993 70.7616 49.58 71.3383 49.3414C71.7709 49.1504 72.1553 48.6493 72.4917 47.8379C72.8762 47.0265 73.0684 46.1435 73.0684 45.1889C73.0684 43.757 72.708 42.6831 71.9871 41.9671ZM73.2126 65.8797C73.549 65.5933 73.8133 65.0683 74.0056 64.3046C74.2459 63.4932 74.366 62.6818 74.366 61.8704C74.366 60.868 74.2218 59.9373 73.9335 59.0782C73.6932 58.1713 73.3568 57.527 72.9243 57.1451C72.4917 56.7156 71.867 56.4292 71.05 56.286C70.2811 56.1428 68.9595 56.0712 67.0852 56.0712C65.8837 56.0712 64.8745 56.0951 64.0575 56.1428V66.524C66.3163 66.5717 68.3347 66.5479 70.1129 66.4524C71.891 66.3092 72.9243 66.1183 73.2126 65.8797Z" fill="#8764C2"/>
<path d="M124.776 41.1796V74.113H114.756L113.386 68.6002C109.926 72.7527 105.793 74.829 100.987 74.829C99.257 74.829 97.623 74.5903 96.0851 74.113C94.5953 73.6357 93.4659 72.9436 92.697 72.0368C92.2645 71.5117 91.9281 70.1992 91.6878 68.0991C91.4956 65.999 91.3994 62.8011 91.3994 58.5054V41.1796H103.726V58.3622C103.726 59.3168 103.75 60.4385 103.798 61.7272C103.847 63.0159 103.991 63.8273 104.231 64.1614C104.567 64.6387 105.529 64.8773 107.114 64.8773L108.268 64.8057C109.614 64.758 111.007 64.4478 112.449 63.875V41.1796H124.776Z" fill="#8764C2"/>
<path d="M165 41.1796L156.35 68.7434C154.667 74.0414 153.154 77.8837 151.808 80.2701C150.462 82.7043 149.117 84.3987 147.771 85.3533C147.002 85.8784 145.777 86.2841 144.095 86.5704C142.461 86.8568 140.683 87 138.76 87C135.877 87 133.57 86.7375 131.84 86.2125C131.792 85.067 131.84 83.6589 131.984 81.9884C132.128 80.3656 132.32 78.9814 132.561 77.8359C134.579 77.9314 136.55 77.9791 138.472 77.9791C139.914 77.9791 140.995 77.9552 141.716 77.9075C142.437 76.5234 143.109 75.0676 143.734 73.5403L138.76 73.2539L127.659 41.1796H140.707L146.474 64.233L146.546 65.5933H146.762L151.952 41.1796H165Z" fill="#8764C2"/>
</svg>
