<svg width="27" height="27" viewBox="0 0 27 27" fill="none" xmlns="http://www.w3.org/2000/svg">
<path d="M13.5 12.9375C12.7541 12.9375 12.0387 12.6412 11.5113 12.1137C10.9838 11.5863 10.6875 10.8709 10.6875 10.125C10.6875 9.37908 10.9838 8.66371 11.5113 8.13626C12.0387 7.60882 12.7541 7.3125 13.5 7.3125C14.2459 7.3125 14.9613 7.60882 15.4887 8.13626C16.0162 8.66371 16.3125 9.37908 16.3125 10.125C16.3125 10.4943 16.2398 10.8601 16.0984 11.2013C15.9571 11.5425 15.7499 11.8526 15.4887 12.1137C15.2276 12.3749 14.9175 12.5821 14.5763 12.7234C14.2351 12.8648 13.8693 12.9375 13.5 12.9375ZM13.5 2.25C11.4114 2.25 9.40838 3.07969 7.93153 4.55653C6.45469 6.03338 5.625 8.03642 5.625 10.125C5.625 16.0312 13.5 24.75 13.5 24.75C13.5 24.75 21.375 16.0312 21.375 10.125C21.375 8.03642 20.5453 6.03338 19.0685 4.55653C17.5916 3.07969 15.5886 2.25 13.5 2.25Z" fill="#8764C2"/>
</svg>
