<?xml version="1.0" encoding="UTF-8" standalone="no"?>
<svg
   xmlns:dc="http://purl.org/dc/elements/1.1/"
   xmlns:cc="http://creativecommons.org/ns#"
   xmlns:rdf="http://www.w3.org/1999/02/22-rdf-syntax-ns#"
   xmlns:svg="http://www.w3.org/2000/svg"
   xmlns="http://www.w3.org/2000/svg"
   xmlns:sodipodi="http://sodipodi.sourceforge.net/DTD/sodipodi-0.dtd"
   xmlns:inkscape="http://www.inkscape.org/namespaces/inkscape"
   width="19"
   height="19"
   viewBox="0 0 19 19"
   fill="none"
   version="1.1"
   id="svg4"
   sodipodi:docname="Password.svg"
   inkscape:version="1.0.2-2 (e86c870879, 2021-01-15)">
  <metadata
     id="metadata10">
    <rdf:RDF>
      <cc:Work
         rdf:about="">
        <dc:format>image/svg+xml</dc:format>
        <dc:type
           rdf:resource="http://purl.org/dc/dcmitype/StillImage" />
        <dc:title></dc:title>
      </cc:Work>
    </rdf:RDF>
  </metadata>
  <defs
     id="defs8" />
  <sodipodi:namedview
     pagecolor="#ffffff"
     bordercolor="#666666"
     borderopacity="1"
     objecttolerance="10"
     gridtolerance="10"
     guidetolerance="10"
     inkscape:pageopacity="0"
     inkscape:pageshadow="2"
     inkscape:window-width="1920"
     inkscape:window-height="1051"
     id="namedview6"
     showgrid="false"
     inkscape:zoom="46.315789"
     inkscape:cx="8"
     inkscape:cy="9.2121212"
     inkscape:window-x="-9"
     inkscape:window-y="-9"
     inkscape:window-maximized="1"
     inkscape:current-layer="svg4" />
  <path
     d="m 6.07121,8.642924 v -2.57142 c 0,-1.8884 1.54018,-3.42858 3.42858,-3.42858 1.88839,0 3.42861,1.54018 3.42861,3.42858 v 2.57142 z m 11.14289,1.28572 c 0,-0.70982 -0.5759,-1.28572 -1.2857,-1.28572 h -0.4286 v -2.57142 c 0,-3.29465 -2.7054,-6.000004 -6.00001,-6.000004 -3.29465,0 -6,2.705354 -6,6.000004 v 2.57142 H 3.07121 c -0.709817,0 -1.28571,0.5759 -1.28571,1.28572 v 7.7143 c 0,0.7098 0.575893,1.2857 1.28571,1.2857 H 15.9284 c 0.7098,0 1.2857,-0.5759 1.2857,-1.2857 z"
     fill="#8764c2"
     id="path2" />
</svg>
