<?xml version="1.0" encoding="UTF-8" standalone="no"?>
<svg
   xmlns:dc="http://purl.org/dc/elements/1.1/"
   xmlns:cc="http://creativecommons.org/ns#"
   xmlns:rdf="http://www.w3.org/1999/02/22-rdf-syntax-ns#"
   xmlns:svg="http://www.w3.org/2000/svg"
   xmlns="http://www.w3.org/2000/svg"
   xmlns:sodipodi="http://sodipodi.sourceforge.net/DTD/sodipodi-0.dtd"
   xmlns:inkscape="http://www.inkscape.org/namespaces/inkscape"
   width="26"
   height="26"
   viewBox="0 0 26 26"
   fill="none"
   version="1.1"
   id="svg6"
   sodipodi:docname="Profile.svg"
   inkscape:version="1.0.2-2 (e86c870879, 2021-01-15)">
  <metadata
     id="metadata12">
    <rdf:RDF>
      <cc:Work
         rdf:about="">
        <dc:format>image/svg+xml</dc:format>
        <dc:type
           rdf:resource="http://purl.org/dc/dcmitype/StillImage" />
        <dc:title></dc:title>
      </cc:Work>
    </rdf:RDF>
  </metadata>
  <defs
     id="defs10" />
  <sodipodi:namedview
     pagecolor="#ffffff"
     bordercolor="#666666"
     borderopacity="1"
     objecttolerance="10"
     gridtolerance="10"
     guidetolerance="10"
     inkscape:pageopacity="0"
     inkscape:pageshadow="2"
     inkscape:window-width="1920"
     inkscape:window-height="1051"
     id="namedview8"
     showgrid="false"
     inkscape:zoom="35.2"
     inkscape:cx="13"
     inkscape:cy="12.17803"
     inkscape:window-x="-9"
     inkscape:window-y="-9"
     inkscape:window-maximized="1"
     inkscape:current-layer="svg6" />
  <path
     d="m 13,5.1617004 c -2.73309,0 -4.9505061,2.2174054 -4.9505061,4.9504846 0,2.733069 2.2174161,4.950464 4.9505061,4.950464 2.73309,0 4.950485,-2.217395 4.950485,-4.950464 C 17.950485,7.3791058 15.73309,5.1617004 13,5.1617004 Z m 0,7.4257596 c -1.392367,0 -2.475295,-1.082929 -2.475295,-2.475275 0,-1.3407546 1.082928,-2.4752315 2.475295,-2.4752315 1.340723,0 2.47519,1.1344769 2.47519,2.4752315 0,1.392346 -1.134467,2.475275 -2.47519,2.475275 z M 13,0.21122069 c -7.064783,0 -12.7887793,5.72400161 -12.7887793,12.78875331 0,7.064804 5.7239963,12.788779 12.7887793,12.788779 7.064699,0 12.788779,-5.723975 12.788779,-12.788779 C 25.788779,5.9352223 20.064699,0.21122069 13,0.21122069 Z M 13,23.313458 c -2.578371,0 -4.9505061,-0.92821 -6.7553764,-2.47519 C 7.0181349,19.652158 8.35889,18.82713 9.854396,18.82713 10.937219,19.136463 11.968609,19.291182 13,19.291182 c 0.979747,0 2.011138,-0.154719 3.094066,-0.464052 1.495443,0.05154 2.836166,0.825028 3.609656,2.011138 -1.80488,1.54698 -4.176889,2.47519 -6.703722,2.47519 z m 8.353884,-4.331609 c -1.237542,-1.598624 -3.197142,-2.681552 -5.414537,-2.681552 -0.515695,0 -1.340829,0.515695 -2.939347,0.515695 -1.650162,0 -2.475295,-0.515695 -2.990991,-0.515695 -2.2173628,0 -4.1769205,1.082928 -5.414547,2.681552 C 3.356846,17.331688 2.6864632,15.268906 2.6864632,12.999974 2.6864632,7.3275468 7.275972,2.6864685 13,2.6864685 c 5.672437,0 10.313484,4.6410783 10.313484,10.3135055 0,2.268932 -0.721952,4.331714 -1.9596,5.981875 z"
     fill="#8764c2"
     id="path2"
     style="stroke-width:1.0561" />
  <path
     d="m 6.2446236,20.838268 -0.1769184,-0.115432 -0.1012064,0.155247 0.1406624,0.120501 z m 3.6097724,-2.011138 0.05798,-0.203089 -0.02841,-0.0081 h -0.02957 z m 6.23967,0 0.0073,-0.211115 -0.03337,-0.0012 -0.032,0.0092 z m 3.609656,2.011138 0.137505,0.160316 0.140673,-0.120501 -0.101175,-0.155247 z m 1.650162,-1.856419 -0.16697,0.129267 0.169716,0.219142 0.166231,-0.221676 z m -16.759422,0 -0.1689766,0.126733 0.1663152,0.221676 0.1696841,-0.219142 z M 13,4.9504903 c -2.84979,0 -5.1617268,2.3119689 -5.1617268,5.1616947 H 8.260704 c 0,-2.616422 2.1228,-4.7392639 4.739296,-4.7392639 z M 7.8382732,10.112185 c 0,2.849769 2.3119368,5.161685 5.1617268,5.161685 v -0.422441 c -2.616496,0 -4.739296,-2.122768 -4.739296,-4.739244 z M 13,15.27387 c 2.849684,0 5.161706,-2.311916 5.161706,-5.161685 h -0.422442 c 0,2.616476 -2.122873,4.739244 -4.739264,4.739244 z m 5.161706,-5.161685 C 18.161706,7.2624592 15.849684,4.9504903 13,4.9504903 v 0.4224308 c 2.616391,0 4.739264,2.1228419 4.739264,4.7392639 z M 13,12.376239 c -1.275667,0 -2.264075,-0.988407 -2.264075,-2.264054 h -0.422441 c 0,1.50894 1.177555,2.686495 2.686516,2.686495 z m -2.264075,-2.264054 c 0,-1.22697 0.991259,-2.2640214 2.264075,-2.2640214 V 7.4257328 c -1.511812,0 -2.686516,1.2319235 -2.686516,2.6864522 z M 13,7.8481636 c 1.224024,0 2.263969,1.039924 2.263969,2.2640214 H 15.68641 C 15.68641,8.6547837 14.457423,7.4257328 13,7.4257328 Z m 2.263969,2.2640214 c 0,1.272795 -1.036988,2.264054 -2.263969,2.264054 v 0.422441 c 1.454466,0 2.68641,-1.174704 2.68641,-2.686495 z M 13,0 C 5.8185598,0 0,5.8185651 0,12.999974 H 0.4224414 C 0.4224414,6.0518689 6.0518742,0.42244139 13,0.42244139 Z M 0,12.999974 c 0,7.181398 5.8185598,13 13,13 v -0.422442 c -6.9481258,0 -12.5775586,-5.629454 -12.5775586,-12.577558 z m 13,13 c 7.181398,0 13,-5.818602 13,-13 h -0.422547 c 0,6.948104 -5.629348,12.577558 -12.577453,12.577558 z m 13,-13 C 26,5.8185651 20.181398,0 13,0 v 0.42244139 c 6.948105,0 12.577453,5.62942751 12.577453,12.57753261 z M 13,23.102237 c -2.527256,0 -4.850736,-0.909622 -6.617914,-2.424391 L 6.1071612,20.998584 C 7.9497132,22.577987 10.370408,23.524678 13,23.524678 Z M 6.4215421,20.953594 c 0.7387866,-1.132776 2.016186,-1.915243 3.4328539,-1.915243 v -0.422442 c -1.5743442,0 -2.9784443,0.867589 -3.7866908,2.106927 z M 9.79631,19.030219 C 10.895925,19.34441 11.946854,19.502403 13,19.502403 v -0.422442 c -1.009529,0 -2.021382,-0.151339 -3.087624,-0.45592 z M 13,19.502403 c 1.002031,0 2.053065,-0.158205 3.152046,-0.472184 L 16.035981,18.624041 C 14.969211,18.928833 13.957463,19.079961 13,19.079961 Z m 3.086779,-0.464158 c 1.427113,0.04922 2.704364,0.787325 3.440046,1.915349 l 0.3539,-0.230758 c -0.811404,-1.243984 -2.215599,-2.052854 -3.779372,-2.106821 z m 3.479544,1.639601 C 17.798723,22.192932 15.475084,23.102237 13,23.102237 v 0.422441 c 2.578582,0 4.999066,-0.947113 6.841227,-2.526094 z m 1.954637,-1.825369 c -1.274506,-1.646149 -3.293987,-2.763401 -5.581613,-2.763401 v 0.422442 c 2.147059,0 4.046777,1.048605 5.247567,2.599598 z m -5.581613,-2.763401 c -0.159683,0 -0.331722,0.03939 -0.508302,0.08818 -0.08988,0.02492 -0.186403,0.05386 -0.287049,0.08375 -0.101492,0.0302 -0.208792,0.06178 -0.324013,0.09336 C 14.361423,16.480043 13.774969,16.604769 13,16.604769 v 0.422441 c 0.823549,0 1.448974,-0.133175 1.931508,-0.265399 0.120079,-0.03284 0.231075,-0.06558 0.332883,-0.09589 0.102548,-0.03052 0.194218,-0.05798 0.279234,-0.08143 0.17299,-0.04784 0.297505,-0.07298 0.395722,-0.07298 z M 13,16.604772 c -0.801477,0 -1.401132,-0.124937 -1.865818,-0.250508 -0.116805,-0.03158 -0.225267,-0.06326 -0.327603,-0.09336 -0.101386,-0.02999 -0.198442,-0.05883 -0.288633,-0.08364 -0.177215,-0.04879 -0.349254,-0.08818 -0.508937,-0.08818 v 0.422442 c 0.09822,0 0.222733,0.02513 0.396778,0.07298 0.08554,0.02355 0.177848,0.05101 0.281452,0.08153 0.102759,0.03031 0.215023,0.06316 0.336686,0.096 0.489398,0.132225 1.127285,0.265188 1.976075,0.265188 z m -2.990991,-0.515696 c -2.2876465,0 -4.3070641,1.117252 -5.5815592,2.763401 l 0.3340349,0.258639 C 5.9622216,17.560123 7.8619405,16.511518 10.009009,16.511518 Z M 4.7634385,18.855117 C 3.5552667,17.244137 2.8976839,15.226768 2.8976839,12.999974 H 2.4752425 c 0,2.311176 0.6831722,4.419159 1.9502429,6.108608 z M 2.8976839,12.999974 C 2.8976839,7.443507 7.3933157,2.8976786 13,2.8976786 V 2.4752478 c -5.8413611,0 -10.5247575,4.7363283 -10.5247575,10.5247262 z M 13,2.8976786 c 5.555738,0 10.102263,4.5465149 10.102263,10.1022954 h 0.422442 C 23.524705,7.2108896 18.789031,2.4752478 13,2.4752478 Z M 23.102263,12.999974 c 0,2.223309 -0.707167,4.241522 -1.917356,5.855143 l 0.337954,0.253465 c 1.265106,-1.686809 2.001844,-3.793946 2.001844,-6.108608 z"
     fill="#8764c2"
     id="path4"
     style="stroke-width:1.0561" />
</svg>
