<?xml version="1.0" encoding="UTF-8" standalone="no"?>
<svg
   xmlns:dc="http://purl.org/dc/elements/1.1/"
   xmlns:cc="http://creativecommons.org/ns#"
   xmlns:rdf="http://www.w3.org/1999/02/22-rdf-syntax-ns#"
   xmlns:svg="http://www.w3.org/2000/svg"
   xmlns="http://www.w3.org/2000/svg"
   xmlns:sodipodi="http://sodipodi.sourceforge.net/DTD/sodipodi-0.dtd"
   xmlns:inkscape="http://www.inkscape.org/namespaces/inkscape"
   width="19"
   height="19"
   viewBox="0 0 19 19"
   fill="none"
   version="1.1"
   id="svg4"
   sodipodi:docname="Search.svg"
   inkscape:version="1.0.2-2 (e86c870879, 2021-01-15)">
  <metadata
     id="metadata10">
    <rdf:RDF>
      <cc:Work
         rdf:about="">
        <dc:format>image/svg+xml</dc:format>
        <dc:type
           rdf:resource="http://purl.org/dc/dcmitype/StillImage" />
        <dc:title></dc:title>
      </cc:Work>
    </rdf:RDF>
  </metadata>
  <defs
     id="defs8" />
  <sodipodi:namedview
     pagecolor="#ffffff"
     bordercolor="#666666"
     borderopacity="1"
     objecttolerance="10"
     gridtolerance="10"
     guidetolerance="10"
     inkscape:pageopacity="0"
     inkscape:pageshadow="2"
     inkscape:window-width="1920"
     inkscape:window-height="1051"
     id="namedview6"
     showgrid="false"
     inkscape:zoom="48.888889"
     inkscape:cx="9.0454545"
     inkscape:cy="15.185933"
     inkscape:window-x="-9"
     inkscape:window-y="-9"
     inkscape:window-maximized="1"
     inkscape:current-layer="svg4" />
  <path
     d="m 12.7144,8.214428 c 0,2.48103 -2.01894,4.50003 -4.4999699,4.50003 -2.4810301,0 -4.5000001,-2.019 -4.5000001,-4.50003 0,-2.48103 2.01897,-4.5 4.5000001,-4.5 2.4810299,0 4.4999699,2.01897 4.4999699,4.5 z m 5.1429,8.35713 c 0,-0.3415 -0.1406,-0.673 -0.3717,-0.904 l -3.4453,-3.4453 c 0.8136,-1.1752 1.2456,-2.58149 1.2456,-4.00783 C 15.2859,4.307058 12.1218,1.143 8.2144301,1.143 4.3070599,1.143 1.143,4.307058 1.143,8.214428 c 0,3.90733 3.1640599,7.07143 7.0714301,7.07143 1.42634,0 2.8325899,-0.4319 4.0077699,-1.2455 l 3.4454,3.4352 c 0.231,0.2411 0.5625,0.3817 0.904,0.3817 0.7031,0 1.2857,-0.5826 1.2857,-1.2857 z"
     fill="#8764c2"
     id="path2"
     style="stroke-width:1" />
</svg>
