<svg width="15" height="13" viewBox="0 0 15 13" fill="none" xmlns="http://www.w3.org/2000/svg">
<path d="M14 5.05469C14 4.82031 13.75 4.72656 13.5625 4.69531L9.64062 4.125L7.88281 0.570312C7.8125 0.421875 7.67969 0.25 7.5 0.25C7.32031 0.25 7.1875 0.421875 7.11719 0.570312L5.35938 4.125L1.4375 4.69531C1.24219 4.72656 1 4.82031 1 5.05469C1 5.19531 1.10156 5.32812 1.19531 5.42969L4.03906 8.19531L3.36719 12.1016C3.35938 12.1563 3.35156 12.2031 3.35156 12.2578C3.35156 12.4609 3.45313 12.6484 3.67969 12.6484C3.78906 12.6484 3.89063 12.6094 3.99219 12.5547L7.5 10.7109L11.0078 12.5547C11.1016 12.6094 11.2109 12.6484 11.3203 12.6484C11.5469 12.6484 11.6406 12.4609 11.6406 12.2578C11.6406 12.2031 11.6406 12.1563 11.6328 12.1016L10.9609 8.19531L13.7969 5.42969C13.8984 5.32812 14 5.19531 14 5.05469Z" fill="#8764C2"/>
<path d="M13.5625 4.69531L13.5954 4.49799L13.5913 4.49739L13.5625 4.69531ZM9.64062 4.125L9.46135 4.21365L9.50791 4.3078L9.61184 4.32292L9.64062 4.125ZM7.88281 0.570312L7.70204 0.655941L7.70354 0.658965L7.88281 0.570312ZM7.11719 0.570312L7.29649 0.658978L7.29794 0.655929L7.11719 0.570312ZM5.35938 4.125L5.38816 4.32292L5.49209 4.3078L5.53865 4.21365L5.35938 4.125ZM1.4375 4.69531L1.40872 4.49737L1.4059 4.49782L1.4375 4.69531ZM1.19531 5.42969L1.04814 5.56554L1.05587 5.57306L1.19531 5.42969ZM4.03906 8.19531L4.23617 8.22921L4.25403 8.12539L4.1785 8.05194L4.03906 8.19531ZM3.36719 12.1016L3.17 12.0676L3.1692 12.0733L3.36719 12.1016ZM3.99219 12.5547L3.89913 12.3776L3.89737 12.3786L3.99219 12.5547ZM7.5 10.7109L7.59305 10.5339L7.5 10.485L7.40695 10.5339L7.5 10.7109ZM11.0078 12.5547L11.1087 12.3818L11.1009 12.3777L11.0078 12.5547ZM11.6328 12.1016L11.8309 12.0733L11.8299 12.0677L11.6328 12.1016ZM10.9609 8.19531L10.8213 8.05213L10.746 8.12556L10.7638 8.22921L10.9609 8.19531ZM13.7969 5.42969L13.9365 5.57288L13.9383 5.57111L13.7969 5.42969ZM14.2 5.05469C14.2 4.85202 14.0866 4.71418 13.9616 4.63184C13.8427 4.55346 13.7024 4.51587 13.5954 4.49803L13.5296 4.89259C13.6101 4.906 13.6885 4.93091 13.7415 4.96582C13.7884 4.99676 13.8 5.02298 13.8 5.05469H14.2ZM13.5913 4.49739L9.66941 3.92708L9.61184 4.32292L13.5337 4.89323L13.5913 4.49739ZM9.8199 4.03635L8.06209 0.481658L7.70354 0.658965L9.46135 4.21365L9.8199 4.03635ZM8.06356 0.484694C8.02147 0.395847 7.95783 0.293165 7.87052 0.209821C7.78279 0.126081 7.65776 0.0499997 7.5 0.0499997V0.45C7.52193 0.45 7.55315 0.459856 7.59433 0.499163C7.63592 0.538865 7.67384 0.59634 7.70206 0.655929L8.06356 0.484694ZM7.5 0.0499997C7.34224 0.0499997 7.21721 0.126081 7.12948 0.209821C7.04217 0.293165 6.97853 0.395847 6.93644 0.484694L7.29794 0.655929C7.32616 0.59634 7.36408 0.538865 7.40567 0.499163C7.44685 0.459856 7.47807 0.45 7.5 0.45V0.0499997ZM6.93791 0.481658L5.1801 4.03635L5.53865 4.21365L7.29647 0.658965L6.93791 0.481658ZM5.33059 3.92708L1.40872 4.49739L1.46628 4.89323L5.38816 4.32292L5.33059 3.92708ZM1.4059 4.49782C1.29469 4.51562 1.15338 4.55321 1.03457 4.63242C0.90885 4.71623 0.8 4.85453 0.8 5.05469H1.2C1.2 5.02047 1.21224 4.99471 1.25645 4.96524C1.30756 4.93116 1.385 4.90626 1.4691 4.8928L1.4059 4.49782ZM0.8 5.05469C0.8 5.17293 0.842379 5.27659 0.889841 5.35778C0.937558 5.4394 0.997475 5.51023 1.04835 5.56534L1.34227 5.29403C1.2994 5.24759 1.26166 5.20123 1.23516 5.1559C1.2084 5.11013 1.2 5.07707 1.2 5.05469H0.8ZM1.05587 5.57306L3.89962 8.33869L4.1785 8.05194L1.33475 5.28631L1.05587 5.57306ZM3.84196 8.16141L3.17008 12.0677L3.56429 12.1355L4.23617 8.22921L3.84196 8.16141ZM3.1692 12.0733C3.16222 12.1221 3.15156 12.1856 3.15156 12.2578H3.55156C3.55156 12.2207 3.55653 12.1904 3.56518 12.1298L3.1692 12.0733ZM3.15156 12.2578C3.15156 12.3893 3.18396 12.5326 3.27015 12.6486C3.36177 12.7719 3.50345 12.8484 3.67969 12.8484V12.4484C3.62937 12.4484 3.60698 12.4313 3.59118 12.41C3.56995 12.3814 3.55156 12.3295 3.55156 12.2578H3.15156ZM3.67969 12.8484C3.8374 12.8484 3.97358 12.7919 4.08701 12.7308L3.89737 12.3786C3.80767 12.4269 3.74073 12.4484 3.67969 12.4484V12.8484ZM4.08524 12.7317L7.59305 10.888L7.40695 10.5339L3.89914 12.3777L4.08524 12.7317ZM7.40695 10.888L10.9148 12.7317L11.1009 12.3777L7.59305 10.5339L7.40695 10.888ZM10.907 12.7274C11.0209 12.7938 11.1651 12.8484 11.3203 12.8484V12.4484C11.2568 12.4484 11.1823 12.4249 11.1086 12.3819L10.907 12.7274ZM11.3203 12.8484C11.4973 12.8484 11.6383 12.7711 11.728 12.6458C11.8116 12.5291 11.8406 12.3862 11.8406 12.2578H11.4406C11.4406 12.3326 11.4228 12.385 11.4028 12.4128C11.3938 12.4254 11.3846 12.4329 11.375 12.4378C11.3654 12.4428 11.3487 12.4484 11.3203 12.4484V12.8484ZM11.8406 12.2578C11.8406 12.2043 11.8409 12.144 11.8308 12.0733L11.4348 12.1298C11.4403 12.1685 11.4406 12.2019 11.4406 12.2578H11.8406ZM11.8299 12.0677L11.158 8.16141L10.7638 8.22921L11.4357 12.1355L11.8299 12.0677ZM11.1006 8.3385L13.9365 5.57287L13.6572 5.2865L10.8213 8.05213L11.1006 8.3385ZM13.9383 5.57111C14.042 5.46744 14.2 5.28325 14.2 5.05469H13.8C13.8 5.10738 13.7549 5.1888 13.6555 5.28827L13.9383 5.57111Z" fill="#8764C2"/>
</svg>
