<?xml version="1.0" encoding="UTF-8" standalone="no"?>
<svg
   xmlns:dc="http://purl.org/dc/elements/1.1/"
   xmlns:cc="http://creativecommons.org/ns#"
   xmlns:rdf="http://www.w3.org/1999/02/22-rdf-syntax-ns#"
   xmlns:svg="http://www.w3.org/2000/svg"
   xmlns="http://www.w3.org/2000/svg"
   xmlns:sodipodi="http://sodipodi.sourceforge.net/DTD/sodipodi-0.dtd"
   xmlns:inkscape="http://www.inkscape.org/namespaces/inkscape"
   width="19"
   height="19"
   viewBox="0 0 19 19"
   fill="none"
   version="1.1"
   id="svg4"
   sodipodi:docname="User.svg"
   inkscape:version="1.0.2-2 (e86c870879, 2021-01-15)">
  <metadata
     id="metadata10">
    <rdf:RDF>
      <cc:Work
         rdf:about="">
        <dc:format>image/svg+xml</dc:format>
        <dc:type
           rdf:resource="http://purl.org/dc/dcmitype/StillImage" />
        <dc:title></dc:title>
      </cc:Work>
    </rdf:RDF>
  </metadata>
  <defs
     id="defs8" />
  <sodipodi:namedview
     pagecolor="#ffffff"
     bordercolor="#666666"
     borderopacity="1"
     objecttolerance="10"
     gridtolerance="10"
     guidetolerance="10"
     inkscape:pageopacity="0"
     inkscape:pageshadow="2"
     inkscape:window-width="1920"
     inkscape:window-height="1051"
     id="namedview6"
     showgrid="false"
     inkscape:zoom="31.112698"
     inkscape:cx="7.0118895"
     inkscape:cy="9.3461465"
     inkscape:window-x="-9"
     inkscape:window-y="-9"
     inkscape:window-maximized="1"
     inkscape:current-layer="svg4" />
  <path
     d="m 17.3573,15.675315 c 0,-3.2288 -0.798,-6.96096 -4.0145,-6.96096 -0.9944,0.96986 -2.34489,1.57146 -3.84266,1.57146 -1.49776,0 -2.84821,-0.6016 -3.84263,-1.57146 -3.216519,0 -4.01451,3.73216 -4.01451,6.96096 0,1.7924 1.17857,3.2533 2.61496,3.2533 H 14.7423 c 1.4364,0 2.615,-1.4609 2.615,-3.2533 z M 14.2144,4.785785 c 0,-2.60268 -2.1116,-4.714285 -4.71426,-4.714285 -2.60268,0 -4.71428,2.111605 -4.71428,4.714285 0,2.60268 2.1116,4.71433 4.71428,4.71433 2.60266,0 4.71426,-2.11165 4.71426,-4.71433 z"
     fill="#8764c2"
     id="path2" />
</svg>
